<svg width="76" height="76" viewBox="0 0 76 76" fill="none" xmlns="http://www.w3.org/2000/svg">
<circle cx="38" cy="38" r="38" fill="#F3EBED"/>
<g clip-path="url(#clip0_3_2)">
<path d="M10.3248 48.9067H32.3607C32.1742 49.3399 31.9611 49.81 31.7364 50.3033C30.4298 53.1753 28.8027 56.7502 29.6076 58.888C29.8055 59.4113 30.1387 59.8167 30.5976 60.1055H29.0102C28.8537 59.3809 28.6482 57.9018 29.0325 57.1255L29.2916 56.6026H28.4057H28.1446V55.928L28.2754 55.9331L28.2965 55.2266L25.6245 55.1271C26.185 54.8607 26.3822 54.3537 26.3784 53.2354C26.3752 52.4345 25.9654 51.9568 25.2811 51.9568C25.1049 51.9568 24.9294 51.9887 24.7749 52.0303C24.7762 51.7104 24.7341 51.343 24.556 51.1107C24.4405 50.9594 24.2777 50.8762 24.0983 50.8762L24.0683 51.567C24.1136 51.622 24.1347 51.8218 24.1328 52.0524C23.9617 52.002 23.7607 51.9575 23.5545 51.9575C22.8715 51.9575 22.4611 52.4349 22.4578 53.2361C22.4534 54.2343 22.6104 54.7435 23.0419 55.0316L19.5918 54.9038H13.9287L13.7493 54.9541C13.3721 55.0952 13.3312 55.3974 13.3312 56.0065C13.3312 56.4556 13.4257 56.785 13.6134 56.9855C13.7174 57.0973 13.8234 57.1425 13.9006 57.1614C13.6893 57.5421 13.464 58.0668 13.464 58.5974C13.464 59.1873 13.7078 59.7475 13.9044 60.1055H12.324V64.7407H63.2034V60.1055H60.724C61.1742 59.922 61.5922 59.6429 61.9541 59.2192C62.9486 58.0556 60.7591 54.9744 57.3065 50.4064C56.9128 49.8863 56.5335 49.3848 56.1788 48.9067H57.2363H65.2018V44.7659V11.5809H10.3248V48.9067ZM23.5551 52.6632C23.9023 52.6632 24.2834 52.8511 24.2866 52.8525L24.4187 52.9188L24.5503 52.8525C24.5541 52.8503 24.9358 52.6632 25.2817 52.6632C25.5632 52.6632 25.7388 52.7591 25.7407 53.2376C25.7452 54.4482 25.6577 54.552 24.4187 54.6914C23.1791 54.5527 23.0923 54.4482 23.0974 53.2376C23.0987 52.7591 23.2743 52.6632 23.5551 52.6632ZM43.0441 58.9944C43.3722 59.0121 43.6269 59.0277 43.7061 59.0335C43.7207 59.0342 43.7361 59.0346 43.7507 59.0346C43.9173 59.0346 44.0731 58.9647 44.2027 58.8305C44.3814 58.6448 44.479 58.3651 44.4829 58.1848C45.0599 58.0824 45.5821 57.7951 45.5821 57.2171C45.5821 57.0166 45.5099 56.8338 45.3733 56.6887C45.1601 56.4622 44.802 56.3576 44.4835 56.3109C44.5039 56.1683 44.5059 56.008 44.4816 55.827C44.412 55.2979 43.3186 54.7359 41.2313 54.1557L41.5556 51.5909C43.085 52.4067 48.5509 54.9103 53.466 52.0969L53.3741 53.5821L53.369 53.5792L53.344 54.0768L53.3415 54.1127H53.3422L53.3165 54.6121C52.9369 54.9208 51.2095 55.3822 50.4484 55.5849C49.9551 55.717 49.5976 55.8115 49.4322 55.8809C49.0858 56.0221 48.9914 56.2523 48.9729 56.4213C48.9624 56.515 48.9758 56.6019 49.0015 56.6818C48.8618 56.713 48.7323 56.7611 48.6338 56.8613C48.5158 56.9811 48.454 57.1425 48.454 57.3289C48.454 57.6347 48.5871 57.8685 48.7609 58.0393C48.6798 58.428 49.1159 58.681 49.4101 58.8489C49.6283 58.9741 49.89 59.0664 50.169 59.1377C50.2483 59.5434 50.7159 59.7631 51.1737 59.9741C51.2689 60.0186 51.3535 60.0617 51.4418 60.1062H40.8068C41.0181 60.0758 41.2377 60.0302 41.4739 59.9444C42.3216 59.6379 42.8271 59.3321 43.0441 58.9944ZM51.6934 52.1378C52.2225 51.774 52.6673 51.415 52.9398 51.1812L53.1109 51.5026C52.6437 51.7639 52.1696 51.9716 51.6934 52.1378ZM28.2876 57.3083C28.061 58.2492 28.2282 59.4424 28.3501 60.0765L27.2324 60.1051H21.0159V57.3083H28.1146H28.2876ZM27.5069 55.9041V56.6019H20.1503V55.6309L27.5069 55.9041ZM13.9849 55.611C13.9861 55.6102 13.9874 55.6102 13.9887 55.6095H19.512V56.5997L14.0595 56.4799C14.0359 56.4614 13.9689 56.3337 13.9689 56.0058C13.9695 55.7861 13.9772 55.671 13.9849 55.611ZM14.5606 59.9292C14.3838 59.6513 14.1023 59.1026 14.1023 58.5967C14.1023 58.0904 14.4425 57.4929 14.6513 57.191L19.5918 57.3083H20.3763V60.1051H17.6162L14.5606 59.9292ZM62.5643 60.8112V64.0339H12.9623V60.8112H17.6086L20.5448 60.9795L27.2273 60.8112H33.6117C33.6405 60.8112 33.6705 60.8148 33.6998 60.8148C33.7222 60.8148 33.7432 60.8112 33.7662 60.8112H40.1328H53.1135H62.5643ZM37.1678 60.1051C37.8048 59.8485 38.2925 59.5858 38.5504 59.4309C38.7949 59.6542 39.2685 59.994 39.9413 60.1051H37.1678ZM53.8662 60.1051C54.0635 60.0653 54.2661 60.0244 54.4822 59.9791L54.8148 59.91C55.218 59.8272 55.9092 59.9574 56.641 60.095C56.6576 60.0986 56.6764 60.1015 56.6931 60.1051H53.8662ZM56.8165 50.8599C58.8182 53.5079 62.1687 57.9391 61.4901 58.7331C60.3436 60.0758 58.3502 59.7001 56.7474 59.3987C55.924 59.2438 55.2136 59.108 54.6986 59.2163L54.3646 59.2854C53.2514 59.5152 52.2018 59.7312 51.8714 59.5434C51.7411 59.47 51.5873 59.3979 51.431 59.3252C51.6966 59.3422 51.9525 59.3498 52.183 59.3498C52.723 59.3498 53.12 59.3158 53.1602 59.3118L53.1077 58.6083C52.596 58.6528 51.3249 58.6915 50.3865 58.4704C51.4621 58.5489 53.0599 58.6137 53.5228 58.3419L53.2231 57.718C52.9228 57.8946 51.1295 57.8446 49.6508 57.6984C49.5889 57.6897 49.5422 57.6912 49.4872 57.6876C49.3942 57.6572 49.0927 57.5233 49.0616 57.3839C49.1553 57.3184 49.5549 57.3564 49.7478 57.3749C49.9066 57.3897 50.0688 57.4002 50.2468 57.4009C52.3394 57.4009 53.5832 57.1559 54.0479 56.6514L53.6017 56.1462C53.4826 56.2758 52.8902 56.6938 50.1907 56.6938C50.0764 56.6945 49.9468 56.684 49.8021 56.6706C49.7597 56.6663 49.7163 56.6641 49.6743 56.6598L49.7242 56.5787C49.7076 56.566 49.6891 56.5497 49.6725 56.5335C49.818 56.4777 50.1976 56.376 50.5993 56.2693C52.7693 55.6895 53.7685 55.3468 53.9466 54.8502C53.9611 54.8093 53.9708 54.7681 53.9752 54.7257C54.29 54.9291 54.6002 55.1597 54.7015 55.3052C55.0066 55.7431 56.5089 56.169 57.0557 55.8744C57.2823 55.7507 57.3883 55.4995 57.325 55.2339C57.0387 54.0399 55.8763 52.8058 55.827 52.7544L55.3873 53.2665C55.3982 53.2778 56.3677 54.3063 56.6685 55.2704C56.3037 55.3149 55.3656 55.0536 55.2085 54.8756C54.9715 54.5336 54.3335 54.1282 53.9951 53.9277L54.1858 50.823L53.6719 51.1613L53.1117 50.1075L52.8225 50.3782C52.8019 50.397 50.7944 52.259 49.0793 52.6448C45.049 52.875 41.5051 50.7701 41.4566 50.7404L41.0513 50.494L40.6689 53.5199C40.5623 53.542 40.4481 53.5709 40.3306 53.6013C40.1168 53.657 39.8226 53.7305 39.7006 53.7157C39.5691 53.6979 39.2264 53.648 37.9153 55.2903C36.585 55.5968 35.0097 55.6888 34.8048 55.3348C34.5877 54.9556 35.4003 53.2955 36.2652 52.0429L35.7578 51.6141C35.2656 52.327 33.7017 54.7294 34.266 55.7141C34.5105 56.1393 35.1482 56.2722 35.8497 56.2722C36.735 56.2722 37.7225 56.0608 38.1527 55.9569L38.2555 55.9323L38.3244 55.8447C38.8115 55.2295 39.4523 54.5289 39.6661 54.4228C39.8909 54.446 40.1896 54.3649 40.4755 54.2907C40.5081 54.2824 40.5419 54.2737 40.5745 54.2654L40.5209 54.6892L40.8017 54.7641C42.1371 55.1213 43.6875 55.6964 43.8503 55.928C43.888 56.2056 43.8439 56.279 43.8695 56.2722V56.2758C43.8637 56.2758 43.8522 56.2765 43.8477 56.2765C42.2296 56.0467 40.3268 55.637 40.0804 55.3793L39.5979 55.8426C40.03 56.393 42.6573 56.819 43.8203 56.9793C44.3501 56.9551 44.8939 57.0886 44.9444 57.2146C44.9444 57.3514 44.5065 57.4983 44.066 57.5189C43.5727 57.2153 42.5271 56.9565 40.3504 56.8613L40.3255 57.5678C43.4641 57.7046 43.8267 58.1986 43.849 58.1476C43.8382 58.2105 43.7814 58.3144 43.7494 58.3256C43.4494 58.3035 40.6919 58.1595 40.6919 58.1595L40.6619 58.8645C40.6619 58.8645 41.3309 58.8999 42.0445 58.938C41.8613 59.0353 41.6188 59.1464 41.276 59.2698C39.7332 59.8261 38.8702 58.8022 38.8357 58.7599L38.6589 58.5395L38.4317 58.6929C38.3972 58.7154 34.9388 60.9979 31.3521 59.703C30.7732 59.4946 30.3959 59.1377 30.1987 58.6137C29.5061 56.7759 31.1255 53.217 32.3083 50.6188C32.669 49.8256 33.0098 49.076 33.2486 48.4615C34.4422 45.3755 41.583 43.8356 41.6551 43.8208L41.8601 43.777L42.1288 42.4737C42.7594 42.7301 43.438 42.8777 44.1478 42.8777C44.8391 42.8777 45.5003 42.7379 46.117 42.4935L46.6806 43.6371L46.8312 43.6668C46.8873 43.6781 52.4298 44.8012 54.8785 48.2462C55.4333 49.0297 56.1046 49.9189 56.8165 50.8599ZM44.1465 42.1742C41.2619 42.1742 38.9155 39.5775 38.9155 36.3861C38.9155 33.1947 41.2626 30.5973 44.1465 30.5973C47.0302 30.5973 49.3768 33.1947 49.3768 36.3861C49.3768 39.5775 47.0309 42.1742 44.1465 42.1742ZM64.5638 48.2002H57.8747V45.4723H64.5638V48.2002ZM10.9631 12.2873H64.5641V44.7659H57.2363V48.2002H55.6591C55.5647 48.0689 55.4677 47.9368 55.379 47.8119C52.9857 44.4459 48.0446 43.2154 47.0943 43.0056L46.7067 42.2208C48.662 41.1655 50.0159 38.9496 50.0159 36.3854C50.0159 32.8041 47.3827 29.8902 44.1471 29.8902C40.9109 29.8902 38.2778 32.8041 38.2778 36.3854C38.2778 38.9262 39.6061 41.1245 41.5326 42.1911L41.3296 43.1744C40.09 43.4598 33.8805 45.0343 32.6613 48.1854C32.6594 48.1905 32.6568 48.1959 32.6549 48.2002H10.9631V12.2873Z" fill="#CC998D"/>
</g>
<defs>
<clipPath id="clip0_3_2">
<rect width="55.3714" height="53.2" fill="white" transform="translate(10.1333 11.5809)"/>
</clipPath>
</defs>
</svg>
